# File created by Blade
# Date/Time:  Wed Jan 21 19:19:27 2015
#---------------------------------------------------------
:version 1.10
:name HOM
:units
  mass 1.0
  length 1.000000
  angle deg
:documentation
     Acclaim Skeleton File
:root
   axis xyz
   order TX TY TZ RX RY RZ
   position 0.000000 0.000000 0.000000
   orientation 0 0 0
:bonedata
   begin
      id 1
      name RightUpLeg_dum
      direction -1.000000 0.000000 0.000000
      length 3.693983
      axis 0.0 0.0 0.0 xyz
   end
   begin
      id 2
      name LeftUpLeg_dum
      direction 1.000000 0.000000 0.000000
      length 3.693983
      axis 0.0 0.0 0.0 xyz
   end
   begin
      id 3
      name Spine_dum
      direction 0.000000 1.000000 0.000000
      length 2.392956
      axis 0.0 0.0 0.0 xyz
   end
   begin
      id 4
      name RightUpLeg
      direction 0.000000 -1.000000 0.000000
      length 15.795667
      axis 0.0 0.0 0.0 xyz
      dof rx ry rz
   end
   begin
      id 5
      name RightLeg
      direction 0.000000 -1.000000 0.000000
      length 14.766989
      axis 0.0 0.0 0.0 xyz
      dof rx ry rz
   end
   begin
      id 6
      name RightFoot
      direction 0.000000 -0.258819 0.965926
      length 4.962790
      axis 15.0 0.0 0.0 xyz
      dof rx ry rz
   end
   begin
      id 7
      name RightToeBase
      direction 0.000000 0.000000 1.000000
      length 2.952750
      axis 0.0 0.0 0.0 xyz
      dof rx ry rz
   end
   begin
      id 8
      name LeftUpLeg
      direction 0.000000 -1.000000 0.000000
      length 15.795667
      axis 0.0 0.0 0.0 xyz
      dof rx ry rz
   end
   begin
      id 9
      name LeftLeg
      direction 0.000000 -1.000000 0.000000
      length 14.766989
      axis 0.0 0.0 0.0 xyz
      dof rx ry rz
   end
   begin
      id 10
      name LeftFoot
      direction 0.000000 -0.258819 0.965926
      length 4.962790
      axis 15.0 0.0 0.0 xyz
      dof rx ry rz
   end
   begin
      id 11
      name LeftToeBase
      direction 0.000000 0.000000 1.000000
      length 2.952750
      axis 0.0 0.0 0.0 xyz
      dof rx ry rz
   end
   begin
      id 12
      name Spine
      direction 0.000000 1.000000 0.000000
      length 0.000000
      axis 0.0 0.0 0.0 xyz
      dof rx ry rz
   end
   begin
      id 13
      name Spine_dum1
      direction 0.000000 1.000000 0.000000
      length 13.207411
      axis 0.0 0.0 0.0 xyz
   end
   begin
      id 14
      name Spine_dum2
      direction 0.000000 1.000000 0.000000
      length 13.207411
      axis 0.0 0.0 0.0 xyz
   end
   begin
      id 15
      name Spine_dum3
      direction 0.000000 1.000000 0.000000
      length 19.250100
      axis 0.0 0.0 0.0 xyz
   end
   begin
      id 16
      name RightShoulder
      direction -1.000000 0.000000 0.000000
      length 8.140465
      axis 0.0 0.0 90.0 xyz
      dof rx ry rz
   end
   begin
      id 17
      name RightArm
      direction -1.000000 0.000000 0.000000
      length 10.649840
      axis 0.0 0.0 90.0 xyz
      dof rx ry rz
   end
   begin
      id 18
      name RightForeArm
      direction -1.000000 0.000000 0.000000
      length 8.304624
      axis 0.0 0.0 90.0 xyz
      dof ry rz rx
   end
   begin
      id 19
      name RightHand
      direction -1.000000 0.000000 0.000000
      length 0.000000
      axis 0.0 0.0 90.0 xyz
      dof rx ry rz
   end
   begin
      id 20
      name RightHand_dum1
      direction -1.000000 0.000000 0.000000
      length 3.937000
      axis 0.0 0.0 90.0 xyz
   end
   begin
      id 21
      name RightHand_dum2
      direction 0.000000 0.000000 0.000000
      length 0.000000
      axis 0.0 0.0 90.0 xyz
   end
   begin
      id 22
      name RightHandThumb1
      direction 0.000000 0.000000 1.000000
      length 3.937000
      axis 0.0 0.0 90.0 xyz
      dof rx rz ry
   end
   begin
      id 23
      name LeftShoulder
      direction 1.000000 0.000000 0.000000
      length 8.140465
      axis 0.0 0.0 -90.0 xyz
      dof rx ry rz
   end
   begin
      id 24
      name LeftArm
      direction 1.000000 0.000000 0.000000
      length 10.649840
      axis 0.0 0.0 -90.0 xyz
      dof rx ry rz
   end
   begin
      id 25
      name LeftForeArm
      direction 1.000000 0.000000 0.000000
      length 8.304624
      axis 0.0 0.0 -90.0 xyz
      dof ry rz rx
   end
   begin
      id 26
      name LeftHand
      direction 1.000000 0.000000 0.000000
      length 0.000000
      axis 0.0 0.0 -90.0 xyz
      dof rx ry rz
   end
   begin
      id 27
      name LeftHand_dum1
      direction 1.000000 0.000000 0.000000
      length 3.937000
      axis 0.0 0.0 -90.0 xyz
   end
   begin
      id 28
      name LeftHand_dum2
      direction 0.000000 0.000000 0.000000
      length 0.000000
      axis 0.0 0.0 -90.0 xyz
   end
   begin
      id 29
      name LeftHandThumb1
      direction 0.000000 0.000000 1.000000
      length 3.937000
      axis 0.0 0.0 -90.0 xyz
      dof rx rz ry
   end
   begin
      id 30
      name Head
      direction 0.000000 1.000000 0.000000
      length 4.527550
      axis 0.0 0.0 0.0 xyz
      dof rx ry rz
   end
:hierarchy
   begin
      root RightUpLeg_dum LeftUpLeg_dum Spine_dum
      RightUpLeg_dum RightUpLeg
      LeftUpLeg_dum LeftUpLeg
      Spine_dum Spine
      RightUpLeg RightLeg
      RightLeg RightFoot
      RightFoot RightToeBase
      LeftUpLeg LeftLeg
      LeftLeg LeftFoot
      LeftFoot LeftToeBase
      Spine Spine_dum1 Spine_dum2 Spine_dum3
      Spine_dum1 RightShoulder
      Spine_dum2 LeftShoulder
      Spine_dum3 Head
      RightShoulder RightArm
      RightArm RightForeArm
      RightForeArm RightHand
      RightHand RightHand_dum1 RightHand_dum2
      RightHand_dum2 RightHandThumb1
      LeftShoulder LeftArm
      LeftArm LeftForeArm
      LeftForeArm LeftHand
      LeftHand LeftHand_dum1 LeftHand_dum2
      LeftHand_dum2 LeftHandThumb1
   end

# File created by Blade
# Date/Time:  Wed Jan 21 19:19:18 2015
# Frame Rate: 120.000 fps
#------------------------------------------------------
:FULLY-SPECIFIED
:DEGREES
448
root -1.469179 14.681950 -2.336609 49.174990 -26.155340 19.426064
RightUpLeg -177.876825 -45.670932 37.884756
RightLeg 105.029378 -0.000000 -0.000000
RightFoot -7.680703 25.008301 19.013465
RightToeBase 22.580716 -0.000000 -0.000000
LeftUpLeg -27.457535 33.223321 23.008508
LeftLeg 12.748903 -0.000000 -0.000000
LeftFoot -27.766981 7.379599 -19.885408
LeftToeBase 6.836425 -0.000000 -0.000000
Spine -33.741710 19.850377 21.687583
RightShoulder -14.104167 19.048560 -20.951327
RightArm -7.841670 -25.284710 60.961646
RightForeArm -0.485265 -0.000000 14.620257
RightHand 39.793676 -0.000000 -65.748502
RightHandThumb1 -24.326973 -0.000000 -32.862282
LeftShoulder -21.754991 -21.921395 68.353196
LeftArm 60.344477 -42.799308 -12.576412
LeftForeArm 7.096153 -0.000000 10.317015
LeftHand -16.882969 -0.000000 13.260079
LeftHandThumb1 -26.253704 0.000000 33.147579
Head -51.534764 0.589573 41.615176
449
root -1.473056 14.670592 -2.297433 49.002021 -26.062925 19.602342
RightUpLeg -177.943806 -46.047007 37.839665
RightLeg 105.145200 -0.000000 -0.000000
RightFoot -7.860053 25.044076 18.950049
RightToeBase 22.553056 -0.000000 -0.000000
LeftUpLeg -27.409984 33.133736 22.924603
LeftLeg 12.737826 -0.000000 -0.000000
LeftFoot -27.707817 7.242575 -19.896342
LeftToeBase 6.798994 -0.000000 -0.000000
Spine -33.812777 19.832000 21.827852
RightShoulder -14.143803 18.763984 -20.837164
RightArm -7.649356 -25.001198 60.664005
RightForeArm -0.773282 -0.000000 14.802581
RightHand 39.761950 -0.000000 -67.082894
RightHandThumb1 -24.326973 -0.000000 -32.862282
LeftShoulder -21.768101 -22.076496 68.584480
LeftArm 60.347123 -42.950105 -12.429966
LeftForeArm 6.528695 -0.000000 9.656626
LeftHand -16.684667 -0.000000 13.165776
LeftHandThumb1 -26.253704 0.000000 33.147579
Head -51.962382 0.939155 41.715198
450
root -1.477636 14.663902 -2.255522 48.822030 -25.958871 19.743676
RightUpLeg -177.940547 -46.439360 37.785231
RightLeg 105.244592 -0.000000 -0.000000
RightFoot -7.986132 25.096416 18.984081
RightToeBase 22.546971 -0.000000 -0.000000
LeftUpLeg -27.340349 33.141041 22.835175
LeftLeg 12.690657 -0.000000 -0.000000
LeftFoot -27.584663 7.076295 -19.785929
LeftToeBase 6.702764 -0.000000 -0.000000
Spine -33.829541 19.863090 21.987480
RightShoulder -14.370315 18.644856 -20.793222
RightArm -7.464012 -25.391764 60.370165
RightForeArm -0.502288 -0.000000 14.917097
RightHand 39.813248 -0.000000 -68.830113
RightHandThumb1 -24.326973 -0.000000 -32.862282
LeftShoulder -21.919954 -22.443580 68.904558
LeftArm 60.481353 -42.928252 -12.369592
LeftForeArm 6.073742 -0.000000 9.010718
LeftHand -16.772387 -0.000000 12.931172
LeftHandThumb1 -26.253704 0.000000 33.147579
Head -52.515626 1.299199 41.793838
451
root -1.480028 14.654132 -2.219155 48.690974 -25.796824 19.896480
RightUpLeg -178.018185 -46.856933 37.800516
RightLeg 105.343687 -0.000000 -0.000000
RightFoot -8.093575 25.150981 19.105002
RightToeBase 22.550098 -0.000000 -0.000000
LeftUpLeg -27.340629 33.026089 22.788925
LeftLeg 12.656418 -0.000000 -0.000000
LeftFoot -27.550200 6.969220 -19.780883
LeftToeBase 6.684652 -0.000000 -0.000000
Spine -33.965346 19.798624 22.169857
RightShoulder -14.410701 18.474078 -20.722781
RightArm -7.279590 -25.889069 60.102998
RightForeArm -0.457980 -0.000000 14.896193
RightHand 39.517741 -0.000000 -70.702907
RightHandThumb1 -24.326973 -0.000000 -32.862282
LeftShoulder -21.901643 -22.628013 69.189172
LeftArm 60.458526 -43.056092 -12.183177
LeftForeArm 5.751896 -0.000000 8.400971
LeftHand -16.702170 -0.000000 12.707906
LeftHandThumb1 -26.253704 0.000000 33.147579
Head -52.823403 1.633580 41.948389
452
root -1.482871 14.645824 -2.186457 48.588193 -25.627193 20.035227
RightUpLeg -178.084566 -47.257639 37.814604
RightLeg 105.430719 -0.000000 -0.000000
RightFoot -8.261985 25.181475 19.127260
RightToeBase 22.547214 -0.000000 -0.000000
LeftUpLeg -27.374836 32.958526 22.728397
LeftLeg 12.611869 -0.000000 -0.000000
LeftFoot -27.493858 6.868630 -19.677743
LeftToeBase 6.651091 -0.000000 -0.000000
Spine -34.113984 19.758421 22.330903
RightShoulder -14.506693 18.276714 -20.668007
RightArm -7.086375 -26.271749 59.804731
RightForeArm -0.208520 -0.000000 14.996255
RightHand 39.661355 -0.000000 -72.011778
RightHandThumb1 -24.326973 -0.000000 -32.862282
LeftShoulder -21.842029 -22.805200 69.436722
LeftArm 60.372758 -43.257060 -11.836993
LeftForeArm 5.336033 -0.000000 7.738417
LeftHand -16.421557 -0.000000 12.383175
LeftHandThumb1 -26.253704 0.000000 33.147579
Head -53.129144 2.009984 42.087154
453
root -1.486444 14.639662 -2.151331 48.441460 -25.435881 20.172678
RightUpLeg -178.106397 -47.688258 37.821850
RightLeg 105.529939 -0.000000 -0.000000
RightFoot -8.439993 25.189743 19.157884
RightToeBase 22.547867 -0.000000 -0.000000
LeftUpLeg -27.373257 32.920625 22.665112
LeftLeg 12.534089 -0.000000 -0.000000
LeftFoot -27.408616 6.745285 -19.557784
LeftToeBase 6.638127 -0.000000 -0.000000
Spine -34.220747 19.692571 22.523988
RightShoulder -14.567738 18.115228 -20.626945
RightArm -7.115263 -26.438103 59.531671
RightForeArm -0.223887 -0.000000 15.403123
RightHand 39.686927 -0.000000 -73.024456
RightHandThumb1 -24.326973 -0.000000 -32.862282
LeftShoulder -21.850713 -23.051181 69.725099
LeftArm 60.383135 -43.370384 -11.554513
LeftForeArm 4.982899 -0.000000 7.083350
LeftHand -16.280860 -0.000000 12.098964
LeftHandThumb1 -26.253704 0.000000 33.147579
Head -53.437767 2.407325 42.212478
